balatro_edit.sfdir
StartChar: exclam
Encoding: 33 33 2
Width: 428
GlyphClass: 1
Flags: W
LayerCount: 2
Fore
SplineSet
0 0 m 1
 286 0 l 1
 286 286 l 1
 0 286 l 1
 0 0 l 1
0 429 m 1
 286 429 l 1
 286 1857 l 1
 0 1857 l 1
 0 429 l 1
EndSplineSet
EndChar
StartChar: quotedbl
Encoding: 34 34 3
Width: 500
GlyphClass: 1
Flags: W
LayerCount: 2
Fore
SplineSet
0 1286 m 1
 143 1286 l 1
 143 1714 l 1
 0 1714 l 1
 0 1286 l 1
286 1286 m 1
 429 1286 l 1
 429 1714 l 1
 286 1714 l 1
 286 1286 l 1
EndSplineSet
EndChar
StartChar: numbersign
Encoding: 35 35 4
Width: 1571
GlyphClass: 1
Flags: W
LayerCount: 2
Fore
SplineSet
857 714 m 1
 571 714 l 1
 571 1143 l 1
 857 1143 l 1
 857 714 l 1
286 143 m 1
 571 143 l 1
 571 429 l 1
 857 429 l 1
 857 143 l 1
 1143 143 l 1
 1143 429 l 1
 1429 429 l 1
 1429 714 l 1
 1143 714 l 1
 1143 1143 l 1
 1429 1143 l 1
 1429 1429 l 1
 1143 1429 l 1
 1143 1714 l 1
 857 1714 l 1
 857 1429 l 1
 571 1429 l 1
 571 1714 l 1
 286 1714 l 1
 286 1429 l 1
 0 1429 l 1
 0 1143 l 1
 286 1143 l 1
 286 714 l 1
 0 714 l 1
 0 429 l 1
 286 429 l 1
 286 143 l 1
EndSplineSet
EndChar
StartChar: dollar
Encoding: 36 36 5
Width: 1000
GlyphClass: 1
Flags: W
LayerCount: 2
Fore
SplineSet
286 0 m 1
 571 0 l 1
 571 286 l 1
 714 286 l 1
 714 429 l 1
 857 429 l 1
 857 1000 l 1
 714 1000 l 1
 714 1143 l 1
 286 1143 l 1
 286 1429 l 1
 857 1429 l 1
 857 1714 l 1
 571 1714 l 1
 571 2000 l 1
 286 2000 l 1
 286 1714 l 1
 143 1714 l 1
 143 1571 l 1
 0 1571 l 1
 0 1000 l 1
 143 1000 l 1
 143 857 l 1
 571 857 l 1
 571 571 l 1
 0 571 l 1
 0 286 l 1
 286 286 l 1
 286 0 l 1
EndSplineSet
EndChar
StartChar: percent
Encoding: 37 37 6
Width: 1142
GlyphClass: 1
Flags: W
LayerCount: 2
Fore
SplineSet
714 0 m 1
 1000 0 l 1
 1000 286 l 1
 714 286 l 1
 714 0 l 1
0 1429 m 1
 286 1429 l 1
 286 1714 l 1
 0 1714 l 1
 0 1429 l 1
0 0 m 1
 286 0 l 1
 286 286 l 1
 429 286 l 1
 429 571 l 1
 571 571 l 1
 571 857 l 1
 714 857 l 1
 714 1143 l 1
 857 1143 l 1
 857 1429 l 1
 1000 1429 l 1
 1000 1714 l 1
 714 1714 l 1
 714 1429 l 1
 571 1429 l 1
 571 1143 l 1
 429 1143 l 1
 429 857 l 1
 286 857 l 1
 286 571 l 1
 143 571 l 1
 143 286 l 1
 0 286 l 1
 0 0 l 1
EndSplineSet
EndChar
StartChar: ampersand
Encoding: 38 38 7
Width: 1428
GlyphClass: 1
Flags: W
LayerCount: 2
Fore
SplineSet
714 286 m 1
 286 286 l 1
 286 857 l 1
 429 857 l 1
 429 714 l 1
 571 714 l 1
 571 571 l 1
 714 571 l 1
 714 286 l 1
571 1143 m 1
 429 1143 l 1
 429 1286 l 1
 286 1286 l 1
 286 1571 l 1
 571 1571 l 1
 571 1143 l 1
143 0 m 1
 857 0 l 1
 857 143 l 1
 1000 143 l 1
 1000 0 l 1
 1286 0 l 1
 1286 286 l 1
 1143 286 l 1
 1143 429 l 1
 1286 429 l 1
 1286 714 l 1
 1000 714 l 1
 1000 571 l 1
 857 571 l 1
 857 857 l 1
 714 857 l 1
 714 1143 l 1
 857 1143 l 1
 857 1714 l 1
 714 1714 l 1
 714 1857 l 1
 143 1857 l 1
 143 1714 l 1
 0 1714 l 1
 0 1143 l 1
 143 1143 l 1
 143 857 l 1
 0 857 l 1
 0 143 l 1
 143 143 l 1
 143 0 l 1
EndSplineSet
EndChar
StartChar: quotesingle
Encoding: 39 39 8
Width: 214
GlyphClass: 1
Flags: W
LayerCount: 2
Fore
SplineSet
0 1286 m 1
 143 1286 l 1
 143 1714 l 1
 0 1714 l 1
 0 1286 l 1
EndSplineSet
EndChar
StartChar: parenleft
Encoding: 40 40 9
Width: 571
GlyphClass: 1
Flags: W
LayerCount: 2
Fore
SplineSet
143 0 m 1
 429 0 l 1
 429 286 l 1
 286 286 l 1
 286 1571 l 1
 429 1571 l 1
 429 1857 l 1
 143 1857 l 1
 143 1714 l 1
 0 1714 l 1
 0 143 l 1
 143 143 l 1
 143 0 l 1
EndSplineSet
EndChar
StartChar: parenright
Encoding: 41 41 10
Width: 571
GlyphClass: 1
Flags: W
LayerCount: 2
Fore
SplineSet
0 0 m 1
 286 0 l 1
 286 143 l 1
 429 143 l 1
 429 1714 l 1
 286 1714 l 1
 286 1857 l 1
 0 1857 l 1
 0 1571 l 1
 143 1571 l 1
 143 286 l 1
 0 286 l 1
 0 0 l 1
EndSplineSet
EndChar
StartChar: asterisk
Encoding: 42 42 11
Width: 500
GlyphClass: 1
Flags: W
LayerCount: 2
Fore
SplineSet
0 1286 m 1
 143 1286 l 1
 143 1429 l 1
 0 1429 l 1
 0 1286 l 1
286 1286 m 1
 429 1286 l 1
 429 1429 l 1
 286 1429 l 1
 286 1286 l 1
143 1429 m 1
 286 1429 l 1
 286 1571 l 1
 143 1571 l 1
 143 1429 l 1
0 1571 m 1
 143 1571 l 1
 143 1714 l 1
 0 1714 l 1
 0 1571 l 1
286 1571 m 1
 429 1571 l 1
 429 1714 l 1
 286 1714 l 1
 286 1571 l 1
EndSplineSet
EndChar
StartChar: plus
Encoding: 43 43 12
Width: 1000
GlyphClass: 1
Flags: W
LayerCount: 2
Fore
SplineSet
286 571 m 1
 571 571 l 1
 571 857 l 1
 857 857 l 1
 857 1143 l 1
 571 1143 l 1
 571 1429 l 1
 286 1429 l 1
 286 1143 l 1
 0 1143 l 1
 0 857 l 1
 286 857 l 1
 286 571 l 1
EndSplineSet
EndChar
StartChar: comma
Encoding: 44 44 13
Width: 500
GlyphClass: 1
Flags: W
LayerCount: 2
Fore
SplineSet
143 -143 m 1
 286 -143 l 1
 286 286 l 1
 0 286 l 1
 0 0 l 1
 143 0 l 1
 143 -143 l 1
EndSplineSet
EndChar
StartChar: hyphen
Encoding: 45 45 14
Width: 1000
GlyphClass: 1
Flags: W
LayerCount: 2
Fore
SplineSet
0 857 m 1
 857 857 l 1
 857 1143 l 1
 0 1143 l 1
 0 857 l 1
EndSplineSet
EndChar
StartChar: period
Encoding: 46 46 15
Width: 500
GlyphClass: 1
Flags: W
LayerCount: 2
Fore
SplineSet
0 0 m 1
 286 0 l 1
 286 286 l 1
 0 286 l 1
 0 0 l 1
EndSplineSet
EndChar
StartChar: slash
Encoding: 47 47 16
Width: 1142
GlyphClass: 1
Flags: W
LayerCount: 2
Fore
SplineSet
0 0 m 1
 286 0 l 1
 286 286 l 1
 429 286 l 1
 429 571 l 1
 571 571 l 1
 571 857 l 1
 714 857 l 1
 714 1143 l 1
 857 1143 l 1
 857 1429 l 1
 1000 1429 l 1
 1000 1857 l 1
 714 1857 l 1
 714 1571 l 1
 571 1571 l 1
 571 1286 l 1
 429 1286 l 1
 429 1000 l 1
 286 1000 l 1
 286 714 l 1
 143 714 l 1
 143 429 l 1
 0 429 l 1
 0 0 l 1
EndSplineSet
EndChar
StartChar: one
Encoding: 49 49 18
Width: 1142
GlyphClass: 1
Flags: W
LayerCount: 2
Fore
SplineSet
285 0 m 1
 1142 0 l 1
 1142 286 l 1
 856 286 l 1
 856 1857 l 1
 571 1857 l 1
 571 1571 l 1
 285 1571 l 1
 285 1286 l 1
 571 1286 l 1
 571 286 l 1
 285 286 l 1
 285 0 l 1
EndSplineSet
EndChar
StartChar: two
Encoding: 50 50 19
Width: 1142
GlyphClass: 1
Flags: W
LayerCount: 2
Fore
SplineSet
0 0 m 1
 1000 0 l 1
 1000 286 l 1
 429 286 l 1
 429 571 l 1
 571 571 l 1
 571 714 l 1
 714 714 l 1
 714 857 l 1
 857 857 l 1
 857 1000 l 1
 1000 1000 l 1
 1000 1714 l 1
 857 1714 l 1
 857 1857 l 1
 143 1857 l 1
 143 1714 l 1
 0 1714 l 1
 0 1429 l 1
 286 1429 l 1
 286 1571 l 1
 714 1571 l 1
 714 1143 l 1
 571 1143 l 1
 571 1000 l 1
 429 1000 l 1
 429 857 l 1
 286 857 l 1
 286 714 l 1
 143 714 l 1
 143 429 l 1
 0 429 l 1
 0 0 l 1
EndSplineSet
EndChar
StartChar: four
Encoding: 52 52 21
Width: 1142
GlyphClass: 1
Flags: W
LayerCount: 2
Fore
SplineSet
714 1000 m 1
 286 1000 l 1
 286 1143 l 1
 429 1143 l 1
 429 1286 l 1
 571 1286 l 1
 571 1429 l 1
 714 1429 l 1
 714 1000 l 1
714 0 m 1
 1000 0 l 1
 1000 1857 l 1
 571 1857 l 1
 571 1714 l 1
 429 1714 l 1
 429 1571 l 1
 286 1571 l 1
 286 1429 l 1
 143 1429 l 1
 143 1286 l 1
 0 1286 l 1
 0 714 l 1
 714 714 l 1
 714 0 l 1
EndSplineSet
EndChar
StartChar: five
Encoding: 53 53 22
Width: 1142
GlyphClass: 1
Flags: W
LayerCount: 2
Fore
SplineSet
143 0 m 1
 857 0 l 1
 857 143 l 1
 1000 143 l 1
 1000 1000 l 1
 857 1000 l 1
 857 1143 l 1
 286 1143 l 1
 286 1571 l 1
 1000 1571 l 1
 1000 1857 l 1
 0 1857 l 1
 0 1000 l 1
 143 1000 l 1
 143 857 l 1
 714 857 l 1
 714 286 l 1
 286 286 l 1
 286 429 l 1
 0 429 l 1
 0 143 l 1
 143 143 l 1
 143 0 l 1
EndSplineSet
EndChar
StartChar: six
Encoding: 54 54 23
Width: 1142
GlyphClass: 1
Flags: W
LayerCount: 2
Fore
SplineSet
714 286 m 1
 286 286 l 1
 286 857 l 1
 714 857 l 1
 714 286 l 1
143 0 m 1
 857 0 l 1
 857 143 l 1
 1000 143 l 1
 1000 1000 l 1
 857 1000 l 1
 857 1143 l 1
 286 1143 l 1
 286 1571 l 1
 714 1571 l 1
 714 1429 l 1
 1000 1429 l 1
 1000 1714 l 1
 857 1714 l 1
 857 1857 l 1
 143 1857 l 1
 143 1714 l 1
 0 1714 l 1
 0 143 l 1
 143 143 l 1
 143 0 l 1
EndSplineSet
EndChar
StartChar: seven
Encoding: 55 55 24
Width: 1142
GlyphClass: 1
Flags: W
LayerCount: 2
Fore
SplineSet
286 0 m 1
 571 0 l 1
 571 571 l 1
 714 571 l 1
 714 857 l 1
 857 857 l 1
 857 1143 l 1
 1000 1143 l 1
 1000 1857 l 1
 0 1857 l 1
 0 1571 l 1
 714 1571 l 1
 714 1286 l 1
 571 1286 l 1
 571 1000 l 1
 429 1000 l 1
 429 714 l 1
 286 714 l 1
 286 0 l 1
EndSplineSet
EndChar
StartChar: colon
Encoding: 58 58 27
Width: 428
GlyphClass: 1
Flags: W
LayerCount: 2
Fore
SplineSet
0 143 m 1
 286 143 l 1
 286 429 l 1
 0 429 l 1
 0 143 l 1
0 857 m 1
 286 857 l 1
 286 1143 l 1
 0 1143 l 1
 0 857 l 1
EndSplineSet
EndChar
StartChar: semicolon
Encoding: 59 59 28
Width: 428
GlyphClass: 1
Flags: W
LayerCount: 2
Fore
SplineSet
143 -143 m 1
 286 -143 l 1
 286 429 l 1
 0 429 l 1
 0 143 l 1
 143 143 l 1
 143 -143 l 1
0 857 m 1
 286 857 l 1
 286 1143 l 1
 0 1143 l 1
 0 857 l 1
EndSplineSet
EndChar
StartChar: less
Encoding: 60 60 29
Width: 857
GlyphClass: 1
Flags: W
LayerCount: 2
Fore
SplineSet
429 429 m 1
 714 429 l 1
 714 714 l 1
 571 714 l 1
 571 857 l 1
 429 857 l 1
 429 1143 l 1
 571 1143 l 1
 571 1286 l 1
 714 1286 l 1
 714 1571 l 1
 429 1571 l 1
 429 1429 l 1
 286 1429 l 1
 286 1286 l 1
 143 1286 l 1
 143 1143 l 1
 0 1143 l 1
 0 857 l 1
 143 857 l 1
 143 714 l 1
 286 714 l 1
 286 571 l 1
 429 571 l 1
 429 429 l 1
EndSplineSet
EndChar
StartChar: equal
Encoding: 61 61 30
Width: 1000
GlyphClass: 1
Flags: W
LayerCount: 2
Fore
SplineSet
0 571 m 1
 857 571 l 1
 857 857 l 1
 0 857 l 1
 0 571 l 1
0 1143 m 1
 857 1143 l 1
 857 1429 l 1
 0 1429 l 1
 0 1143 l 1
EndSplineSet
EndChar
StartChar: greater
Encoding: 62 62 31
Width: 857
GlyphClass: 1
Flags: W
LayerCount: 2
Fore
SplineSet
0 429 m 1
 286 429 l 1
 286 571 l 1
 429 571 l 1
 429 714 l 1
 571 714 l 1
 571 857 l 1
 714 857 l 1
 714 1143 l 1
 571 1143 l 1
 571 1286 l 1
 429 1286 l 1
 429 1429 l 1
 286 1429 l 1
 286 1571 l 1
 0 1571 l 1
 0 1286 l 1
 143 1286 l 1
 143 1143 l 1
 286 1143 l 1
 286 857 l 1
 143 857 l 1
 143 714 l 1
 0 714 l 1
 0 429 l 1
EndSplineSet
EndChar
StartChar: question
Encoding: 63 63 32
Width: 1285
GlyphClass: 1
Flags: W
LayerCount: 2
Fore
SplineSet
429 0 m 1
 714 0 l 1
 714 286 l 1
 429 286 l 1
 429 0 l 1
429 429 m 1
 714 429 l 1
 714 714 l 1
 857 714 l 1
 857 857 l 1
 1000 857 l 1
 1000 1000 l 1
 1143 1000 l 1
 1143 1714 l 1
 1000 1714 l 1
 1000 1857 l 1
 143 1857 l 1
 143 1714 l 1
 0 1714 l 1
 0 1286 l 1
 286 1286 l 1
 286 1571 l 1
 857 1571 l 1
 857 1143 l 1
 714 1143 l 1
 714 1000 l 1
 571 1000 l 1
 571 857 l 1
 429 857 l 1
 429 429 l 1
EndSplineSet
EndChar
StartChar: at
Encoding: 64 64 33
Width: 1285
GlyphClass: 1
Flags: W
LayerCount: 2
Fore
SplineSet
286 143 m 1
 714 143 l 1
 714 286 l 1
 286 286 l 1
 286 143 l 1
143 286 m 1
 286 286 l 1
 286 429 l 1
 143 429 l 1
 143 286 l 1
286 571 m 1
 429 571 l 1
 429 714 l 1
 286 714 l 1
 286 571 l 1
429 429 m 1
 857 429 l 1
 857 1000 l 1
 714 1000 l 1
 714 857 l 1
 429 857 l 1
 429 714 l 1
 714 714 l 1
 714 571 l 1
 429 571 l 1
 429 429 l 1
0 429 m 1
 143 429 l 1
 143 1143 l 1
 0 1143 l 1
 0 429 l 1
429 1000 m 1
 714 1000 l 1
 714 1143 l 1
 429 1143 l 1
 429 1000 l 1
857 286 m 1
 1143 286 l 1
 1143 1143 l 1
 1000 1143 l 1
 1000 429 l 1
 857 429 l 1
 857 286 l 1
143 1143 m 1
 286 1143 l 1
 286 1286 l 1
 143 1286 l 1
 143 1143 l 1
857 1143 m 1
 1000 1143 l 1
 1000 1286 l 1
 857 1286 l 1
 857 1143 l 1
286 1286 m 1
 857 1286 l 1
 857 1429 l 1
 286 1429 l 1
 286 1286 l 1
EndSplineSet
EndChar
StartChar: A
Encoding: 65 65 34
Width: 1142
GlyphClass: 1
Flags: W
LayerCount: 2
Fore
SplineSet
714 1143 m 1
 286 1143 l 1
 286 1571 l 1
 714 1571 l 1
 714 1143 l 1
0 0 m 1
 286 0 l 1
 286 857 l 1
 714 857 l 1
 714 0 l 1
 1000 0 l 1
 1000 1714 l 1
 857 1714 l 1
 857 1857 l 1
 143 1857 l 1
 143 1714 l 1
 0 1714 l 1
 0 0 l 1
EndSplineSet
EndChar
StartChar: D
Encoding: 68 68 37
Width: 1142
GlyphClass: 1
Flags: W
LayerCount: 2
Fore
SplineSet
714 286 m 1
 286 286 l 1
 286 1571 l 1
 714 1571 l 1
 714 286 l 1
0 0 m 1
 857 0 l 1
 857 143 l 1
 1000 143 l 1
 1000 1714 l 1
 857 1714 l 1
 857 1857 l 1
 0 1857 l 1
 0 0 l 1
EndSplineSet
EndChar
StartChar: F
Encoding: 70 70 39
Width: 1142
GlyphClass: 1
Flags: W
LayerCount: 2
Fore
SplineSet
0 0 m 1
 286 0 l 1
 286 857 l 1
 857 857 l 1
 857 1143 l 1
 286 1143 l 1
 286 1571 l 1
 1000 1571 l 1
 1000 1857 l 1
 0 1857 l 1
 0 0 l 1
EndSplineSet
EndChar
StartChar: H
Encoding: 72 72 41
Width: 1142
GlyphClass: 1
Flags: W
LayerCount: 2
Fore
SplineSet
0 0 m 1
 286 0 l 1
 286 857 l 1
 714 857 l 1
 714 0 l 1
 1000 0 l 1
 1000 1857 l 1
 714 1857 l 1
 714 1143 l 1
 286 1143 l 1
 286 1857 l 1
 0 1857 l 1
 0 0 l 1
EndSplineSet
EndChar
StartChar: I
Encoding: 73 73 42
Width: 714
GlyphClass: 1
Flags: W
LayerCount: 2
Fore
SplineSet
0 0 m 1
 571 0 l 1
 571 286 l 1
 429 286 l 1
 429 1571 l 1
 571 1571 l 1
 571 1857 l 1
 0 1857 l 1
 0 1571 l 1
 143 1571 l 1
 143 286 l 1
 0 286 l 1
 0 0 l 1
EndSplineSet
EndChar
StartChar: J
Encoding: 74 74 43
Width: 1285
GlyphClass: 1
Flags: W
LayerCount: 2
Fore
SplineSet
143 0 m 1
 714 0 l 1
 714 143 l 1
 857 143 l 1
 857 1571 l 1
 1143 1571 l 1
 1143 1857 l 1
 0 1857 l 1
 0 1571 l 1
 571 1571 l 1
 571 286 l 1
 286 286 l 1
 286 429 l 1
 0 429 l 1
 0 143 l 1
 143 143 l 1
 143 0 l 1
EndSplineSet
EndChar
StartChar: K
Encoding: 75 75 44
Width: 1142
GlyphClass: 1
Flags: W
LayerCount: 2
Fore
SplineSet
0 0 m 1
 286 0 l 1
 286 857 l 1
 429 857 l 1
 429 714 l 1
 571 714 l 1
 571 571 l 1
 714 571 l 1
 714 0 l 1
 1000 0 l 1
 1000 714 l 1
 857 714 l 1
 857 857 l 1
 714 857 l 1
 714 1000 l 1
 571 1000 l 1
 571 1143 l 1
 714 1143 l 1
 714 1286 l 1
 857 1286 l 1
 857 1429 l 1
 1000 1429 l 1
 1000 1857 l 1
 714 1857 l 1
 714 1571 l 1
 571 1571 l 1
 571 1429 l 1
 429 1429 l 1
 429 1286 l 1
 286 1286 l 1
 286 1857 l 1
 0 1857 l 1
 0 0 l 1
EndSplineSet
EndChar
StartChar: L
Encoding: 76 76 45
Width: 1000
GlyphClass: 1
Flags: W
LayerCount: 2
Fore
SplineSet
0 0 m 1
 857 0 l 1
 857 286 l 1
 286 286 l 1
 286 1857 l 1
 0 1857 l 1
 0 0 l 1
EndSplineSet
EndChar
StartChar: M
Encoding: 77 77 46
Width: 1857
GlyphClass: 1
Flags: W
LayerCount: 2
Fore
SplineSet
0 0 m 1
 286 0 l 1
 286 1571 l 1
 714 1571 l 1
 714 714 l 1
 1000 714 l 1
 1000 1571 l 1
 1429 1571 l 1
 1429 0 l 1
 1714 0 l 1
 1714 1714 l 1
 1571 1714 l 1
 1571 1857 l 1
 1000 1857 l 1
 1000 1714 l 1
 714 1714 l 1
 714 1857 l 1
 143 1857 l 1
 143 1714 l 1
 0 1714 l 1
 0 0 l 1
EndSplineSet
EndChar
StartChar: N
Encoding: 78 78 47
Width: 1714
GlyphClass: 1
Flags: W
LayerCount: 2
Fore
SplineSet
0 0 m 1
 286 0 l 1
 286 1429 l 1
 429 1429 l 1
 429 1143 l 1
 571 1143 l 1
 571 857 l 1
 714 857 l 1
 714 571 l 1
 857 571 l 1
 857 286 l 1
 1000 286 l 1
 1000 143 l 1
 1143 143 l 1
 1143 0 l 1
 1429 0 l 1
 1429 143 l 1
 1571 143 l 1
 1571 1857 l 1
 1286 1857 l 1
 1286 429 l 1
 1143 429 l 1
 1143 714 l 1
 1000 714 l 1
 1000 1000 l 1
 857 1000 l 1
 857 1286 l 1
 714 1286 l 1
 714 1571 l 1
 571 1571 l 1
 571 1714 l 1
 429 1714 l 1
 429 1857 l 1
 143 1857 l 1
 143 1714 l 1
 0 1714 l 1
 0 0 l 1
EndSplineSet
EndChar
StartChar: P
Encoding: 80 80 49
Width: 1142
GlyphClass: 1
Flags: W
LayerCount: 2
Fore
SplineSet
714 1143 m 1
 286 1143 l 1
 286 1571 l 1
 714 1571 l 1
 714 1143 l 1
0 0 m 1
 286 0 l 1
 286 857 l 1
 857 857 l 1
 857 1000 l 1
 1000 1000 l 1
 1000 1714 l 1
 857 1714 l 1
 857 1857 l 1
 0 1857 l 1
 0 0 l 1
EndSplineSet
EndChar
StartChar: Q
Encoding: 81 81 50
Width: 1285
GlyphClass: 1
Flags: W
LayerCount: 2
Fore
SplineSet
571 286 m 1
 286 286 l 1
 286 1571 l 1
 714 1571 l 1
 714 714 l 1
 429 714 l 1
 429 429 l 1
 571 429 l 1
 571 286 l 1
143 0 m 1
 714 0 l 1
 714 143 l 1
 857 143 l 1
 857 0 l 1
 1143 0 l 1
 1143 286 l 1
 1000 286 l 1
 1000 1714 l 1
 857 1714 l 1
 857 1857 l 1
 143 1857 l 1
 143 1714 l 1
 0 1714 l 1
 0 143 l 1
 143 143 l 1
 143 0 l 1
EndSplineSet
EndChar
StartChar: R
Encoding: 82 82 51
Width: 1142
GlyphClass: 1
Flags: W
LayerCount: 2
Fore
SplineSet
714 1143 m 1
 286 1143 l 1
 286 1571 l 1
 714 1571 l 1
 714 1143 l 1
0 0 m 1
 286 0 l 1
 286 857 l 1
 571 857 l 1
 571 714 l 1
 714 714 l 1
 714 0 l 1
 1000 0 l 1
 1000 714 l 1
 857 714 l 1
 857 1000 l 1
 1000 1000 l 1
 1000 1714 l 1
 857 1714 l 1
 857 1857 l 1
 0 1857 l 1
 0 0 l 1
EndSplineSet
EndChar
StartChar: T
Encoding: 84 84 53
Width: 1285
GlyphClass: 1
Flags: W
LayerCount: 2
Fore
SplineSet
429 0 m 1
 714 0 l 1
 714 1571 l 1
 1143 1571 l 1
 1143 1857 l 1
 0 1857 l 1
 0 1571 l 1
 429 1571 l 1
 429 0 l 1
EndSplineSet
EndChar
StartChar: V
Encoding: 86 86 55
Width: 1142
GlyphClass: 1
Flags: W
LayerCount: 2
Fore
SplineSet
429 0 m 1
 571 0 l 1
 571 143 l 1
 714 143 l 1
 714 571 l 1
 857 571 l 1
 857 1143 l 1
 1000 1143 l 1
 1000 1857 l 1
 714 1857 l 1
 714 1143 l 1
 571 1143 l 1
 571 571 l 1
 429 571 l 1
 429 1143 l 1
 286 1143 l 1
 286 1857 l 1
 0 1857 l 1
 0 1143 l 1
 143 1143 l 1
 143 571 l 1
 286 571 l 1
 286 143 l 1
 429 143 l 1
 429 0 l 1
EndSplineSet
EndChar
StartChar: W
Encoding: 87 87 56
Width: 1571
GlyphClass: 1
Flags: W
LayerCount: 2
Fore
SplineSet
143 0 m 1
 429 0 l 1
 429 143 l 1
 571 143 l 1
 571 286 l 1
 857 286 l 1
 857 143 l 1
 1000 143 l 1
 1000 0 l 1
 1286 0 l 1
 1286 143 l 1
 1429 143 l 1
 1429 1857 l 1
 1143 1857 l 1
 1143 429 l 1
 1000 429 l 1
 1000 571 l 1
 857 571 l 1
 857 1000 l 1
 571 1000 l 1
 571 571 l 1
 429 571 l 1
 429 429 l 1
 286 429 l 1
 286 1857 l 1
 0 1857 l 1
 0 143 l 1
 143 143 l 1
 143 0 l 1
EndSplineSet
EndChar
StartChar: X
Encoding: 88 88 57
Width: 1285
GlyphClass: 1
Flags: W
LayerCount: 2
Fore
SplineSet
0 0 m 1
 286 0 l 1
 286 429 l 1
 429 429 l 1
 429 714 l 1
 571 714 l 1
 571 857 l 1
 714 857 l 1
 714 429 l 1
 857 429 l 1
 857 0 l 1
 1143 0 l 1
 1143 429 l 1
 1000 429 l 1
 1000 857 l 1
 857 857 l 1
 857 1286 l 1
 1000 1286 l 1
 1000 1571 l 1
 1143 1571 l 1
 1143 1857 l 1
 857 1857 l 1
 857 1571 l 1
 714 1571 l 1
 714 1286 l 1
 571 1286 l 1
 571 1143 l 1
 429 1143 l 1
 429 1429 l 1
 286 1429 l 1
 286 1857 l 1
 0 1857 l 1
 0 1429 l 1
 143 1429 l 1
 143 1143 l 1
 286 1143 l 1
 286 714 l 1
 143 714 l 1
 143 429 l 1
 0 429 l 1
 0 0 l 1
EndSplineSet
EndChar
StartChar: Y
Encoding: 89 89 58
Width: 1285
GlyphClass: 1
Flags: W
LayerCount: 2
Fore
SplineSet
429 0 m 1
 714 0 l 1
 714 857 l 1
 857 857 l 1
 857 1000 l 1
 1000 1000 l 1
 1000 1143 l 1
 1143 1143 l 1
 1143 1857 l 1
 857 1857 l 1
 857 1286 l 1
 714 1286 l 1
 714 1143 l 1
 429 1143 l 1
 429 1286 l 1
 286 1286 l 1
 286 1857 l 1
 0 1857 l 1
 0 1143 l 1
 143 1143 l 1
 143 1000 l 1
 286 1000 l 1
 286 857 l 1
 429 857 l 1
 429 0 l 1
EndSplineSet
EndChar
StartChar: backslash
Encoding: 92 92 61
Width: 1142
GlyphClass: 1
Flags: W
LayerCount: 2
Fore
SplineSet
714 0 m 1
 1000 0 l 1
 1000 429 l 1
 857 429 l 1
 857 714 l 1
 714 714 l 1
 714 1000 l 1
 571 1000 l 1
 571 1286 l 1
 429 1286 l 1
 429 1571 l 1
 286 1571 l 1
 286 1857 l 1
 0 1857 l 1
 0 1429 l 1
 143 1429 l 1
 143 1143 l 1
 286 1143 l 1
 286 857 l 1
 429 857 l 1
 429 571 l 1
 571 571 l 1
 571 286 l 1
 714 286 l 1
 714 0 l 1
EndSplineSet
EndChar
StartChar: bracketright
Encoding: 93 93 62
Width: 714
GlyphClass: 1
Flags: W
LayerCount: 2
Fore
SplineSet
0 0 m 1
 571 0 l 1
 571 1857 l 1
 0 1857 l 1
 0 1571 l 1
 286 1571 l 1
 286 286 l 1
 0 286 l 1
 0 0 l 1
EndSplineSet
EndChar
StartChar: asciicircum
Encoding: 94 94 63
Width: 1142
GlyphClass: 1
Flags: W
LayerCount: 2
Fore
SplineSet
0 1286 m 1
 286 1286 l 1
 286 1429 l 1
 429 1429 l 1
 429 1571 l 1
 571 1571 l 1
 571 1429 l 1
 714 1429 l 1
 714 1286 l 1
 1000 1286 l 1
 1000 1571 l 1
 857 1571 l 1
 857 1714 l 1
 714 1714 l 1
 714 1857 l 1
 286 1857 l 1
 286 1714 l 1
 143 1714 l 1
 143 1571 l 1
 0 1571 l 1
 0 1286 l 1
EndSplineSet
EndChar
StartChar: underscore
Encoding: 95 95 64
Width: 1142
GlyphClass: 1
Flags: W
LayerCount: 2
Fore
SplineSet
0 0 m 1
 1000 0 l 1
 1000 286 l 1
 0 286 l 1
 0 0 l 1
EndSplineSet
EndChar
StartChar: grave
Encoding: 96 96 65
Width: 571
GlyphClass: 1
Flags: W
LayerCount: 2
Fore
SplineSet
286 1286 m 1
 429 1286 l 1
 429 1714 l 1
 286 1714 l 1
 286 1857 l 1
 0 1857 l 1
 0 1571 l 1
 143 1571 l 1
 143 1429 l 1
 286 1429 l 1
 286 1286 l 1
EndSplineSet
EndChar
StartChar: a
Encoding: 97 97 66
Width: 1285
GlyphClass: 1
Flags: W
LayerCount: 2
Fore
SplineSet
714 286 m 1
 286 286 l 1
 286 571 l 1
 714 571 l 1
 714 286 l 1
143 0 m 1
 1143 0 l 1
 1143 286 l 1
 1000 286 l 1
 1000 1143 l 1
 857 1143 l 1
 857 1286 l 1
 0 1286 l 1
 0 1000 l 1
 714 1000 l 1
 714 857 l 1
 143 857 l 1
 143 714 l 1
 0 714 l 1
 0 143 l 1
 143 143 l 1
 143 0 l 1
EndSplineSet
EndChar
StartChar: c
Encoding: 99 99 68
Width: 1142
GlyphClass: 1
Flags: W
LayerCount: 2
Fore
SplineSet
143 0 m 1
 1000 0 l 1
 1000 286 l 1
 286 286 l 1
 286 1000 l 1
 1000 1000 l 1
 1000 1286 l 1
 143 1286 l 1
 143 1143 l 1
 0 1143 l 1
 0 143 l 1
 143 143 l 1
 143 0 l 1
EndSplineSet
EndChar
StartChar: d
Encoding: 100 100 69
Width: 1142
GlyphClass: 1
Flags: W
LayerCount: 2
Fore
SplineSet
714 286 m 1
 286 286 l 1
 286 1000 l 1
 714 1000 l 1
 714 286 l 1
143 0 m 1
 1000 0 l 1
 1000 1857 l 1
 714 1857 l 1
 714 1286 l 1
 143 1286 l 1
 143 1143 l 1
 0 1143 l 1
 0 143 l 1
 143 143 l 1
 143 0 l 1
EndSplineSet
EndChar
StartChar: e
Encoding: 101 101 70
Width: 1142
GlyphClass: 1
Flags: W
LayerCount: 2
Fore
SplineSet
714 714 m 1
 286 714 l 1
 286 1000 l 1
 714 1000 l 1
 714 714 l 1
143 0 m 1
 1000 0 l 1
 1000 286 l 1
 286 286 l 1
 286 429 l 1
 1000 429 l 1
 1000 1143 l 1
 857 1143 l 1
 857 1286 l 1
 143 1286 l 1
 143 1143 l 1
 0 1143 l 1
 0 143 l 1
 143 143 l 1
 143 0 l 1
EndSplineSet
EndChar
StartChar: f
Encoding: 102 102 71
Width: 1142
GlyphClass: 1
Flags: W
LayerCount: 2
Fore
SplineSet
286 0 m 1
 571 0 l 1
 571 1000 l 1
 1000 1000 l 1
 1000 1286 l 1
 571 1286 l 1
 571 1571 l 1
 1000 1571 l 1
 1000 1857 l 1
 429 1857 l 1
 429 1714 l 1
 286 1714 l 1
 286 1286 l 1
 0 1286 l 1
 0 1000 l 1
 286 1000 l 1
 286 0 l 1
EndSplineSet
EndChar
StartChar: h
Encoding: 104 104 73
Width: 1142
GlyphClass: 1
Flags: W
LayerCount: 2
Fore
SplineSet
0 0 m 1
 286 0 l 1
 286 1000 l 1
 714 1000 l 1
 714 0 l 1
 1000 0 l 1
 1000 1143 l 1
 857 1143 l 1
 857 1286 l 1
 286 1286 l 1
 286 1857 l 1
 0 1857 l 1
 0 0 l 1
EndSplineSet
EndChar
StartChar: i
Encoding: 105 105 74
Width: 428
GlyphClass: 1
Flags: W
LayerCount: 2
Fore
SplineSet
0 0 m 1
 286 0 l 1
 286 1286 l 1
 0 1286 l 1
 0 0 l 1
0 1571 m 1
 286 1571 l 1
 286 1857 l 1
 0 1857 l 1
 0 1571 l 1
EndSplineSet
EndChar
StartChar: j
Encoding: 106 106 75
Width: 571
GlyphClass: 1
Flags: W
LayerCount: 2
Fore
SplineSet
-571 -571 m 1
 1 -571 l 1
 1 -429 l 1
 144 -429 l 1
 144 1286 l 1
 -142 1286 l 1
 -142 -286 l 1
 -571 -286 l 1
 -571 -571 l 1
-142 1571 m 1
 144 1571 l 1
 144 1857 l 1
 -142 1857 l 1
 -142 1571 l 1
EndSplineSet
EndChar
StartChar: k
Encoding: 107 107 76
Width: 1142
GlyphClass: 1
Flags: W
LayerCount: 2
Fore
SplineSet
0 0 m 1
 286 0 l 1
 286 571 l 1
 571 571 l 1
 571 429 l 1
 714 429 l 1
 714 0 l 1
 1000 0 l 1
 1000 571 l 1
 857 571 l 1
 857 714 l 1
 714 714 l 1
 714 857 l 1
 857 857 l 1
 857 1000 l 1
 1000 1000 l 1
 1000 1286 l 1
 714 1286 l 1
 714 1143 l 1
 571 1143 l 1
 571 1000 l 1
 429 1000 l 1
 429 857 l 1
 286 857 l 1
 286 1857 l 1
 0 1857 l 1
 0 0 l 1
EndSplineSet
EndChar
StartChar: l
Encoding: 108 108 77
Width: 428
GlyphClass: 1
Flags: W
LayerCount: 2
Fore
SplineSet
0 0 m 1
 286 0 l 1
 286 1857 l 1
 0 1857 l 1
 0 0 l 1
EndSplineSet
EndChar
StartChar: m
Encoding: 109 109 78
Width: 1571
GlyphClass: 1
Flags: W
LayerCount: 2
Fore
SplineSet
0 0 m 1
 286 0 l 1
 286 1000 l 1
 571 1000 l 1
 571 429 l 1
 857 429 l 1
 857 1000 l 1
 1143 1000 l 1
 1143 0 l 1
 1429 0 l 1
 1429 1143 l 1
 1286 1143 l 1
 1286 1286 l 1
 143 1286 l 1
 143 1143 l 1
 0 1143 l 1
 0 0 l 1
EndSplineSet
EndChar
StartChar: o
Encoding: 111 111 80
Width: 1142
GlyphClass: 1
Flags: W
LayerCount: 2
Fore
SplineSet
714 286 m 1
 286 286 l 1
 286 1000 l 1
 714 1000 l 1
 714 286 l 1
143 0 m 1
 857 0 l 1
 857 143 l 1
 1000 143 l 1
 1000 1143 l 1
 857 1143 l 1
 857 1286 l 1
 143 1286 l 1
 143 1143 l 1
 0 1143 l 1
 0 143 l 1
 143 143 l 1
 143 0 l 1
EndSplineSet
EndChar
StartChar: p
Encoding: 112 112 81
Width: 1142
GlyphClass: 1
Flags: W
LayerCount: 2
Fore
SplineSet
714 286 m 1
 286 286 l 1
 286 1000 l 1
 714 1000 l 1
 714 286 l 1
0 -571 m 1
 286 -571 l 1
 286 0 l 1
 857 0 l 1
 857 143 l 1
 1000 143 l 1
 1000 1143 l 1
 857 1143 l 1
 857 1286 l 1
 0 1286 l 1
 0 -571 l 1
EndSplineSet
EndChar
StartChar: q
Encoding: 113 113 82
Width: 1142
GlyphClass: 1
Flags: W
LayerCount: 2
Fore
SplineSet
714 286 m 1
 286 286 l 1
 286 1000 l 1
 714 1000 l 1
 714 286 l 1
714 -571 m 1
 1143 -571 l 1
 1143 -286 l 1
 1000 -286 l 1
 1000 1143 l 1
 857 1143 l 1
 857 1286 l 1
 143 1286 l 1
 143 1143 l 1
 0 1143 l 1
 0 143 l 1
 143 143 l 1
 143 0 l 1
 714 0 l 1
 714 -571 l 1
EndSplineSet
EndChar
StartChar: s
Encoding: 115 115 84
Width: 1142
GlyphClass: 1
Flags: W
LayerCount: 2
Fore
SplineSet
0 0 m 1
 857 0 l 1
 857 143 l 1
 1000 143 l 1
 1000 714 l 1
 857 714 l 1
 857 857 l 1
 286 857 l 1
 286 1000 l 1
 1000 1000 l 1
 1000 1286 l 1
 143 1286 l 1
 143 1143 l 1
 0 1143 l 1
 0 714 l 1
 143 714 l 1
 143 571 l 1
 714 571 l 1
 714 286 l 1
 0 286 l 1
 0 0 l 1
EndSplineSet
EndChar
StartChar: t
Encoding: 116 116 85
Width: 1142
GlyphClass: 1
Flags: W
LayerCount: 2
Fore
SplineSet
429 0 m 1
 1000 0 l 1
 1000 286 l 1
 571 286 l 1
 571 1000 l 1
 1000 1000 l 1
 1000 1286 l 1
 571 1286 l 1
 571 1857 l 1
 286 1857 l 1
 286 1286 l 1
 0 1286 l 1
 0 1000 l 1
 286 1000 l 1
 286 143 l 1
 429 143 l 1
 429 0 l 1
EndSplineSet
EndChar
StartChar: u
Encoding: 117 117 86
Width: 1142
GlyphClass: 1
Flags: W
LayerCount: 2
Fore
SplineSet
143 0 m 1
 857 0 l 1
 857 143 l 1
 1000 143 l 1
 1000 1286 l 1
 714 1286 l 1
 714 286 l 1
 286 286 l 1
 286 1286 l 1
 0 1286 l 1
 0 143 l 1
 143 143 l 1
 143 0 l 1
EndSplineSet
EndChar
StartChar: v
Encoding: 118 118 87
Width: 1142
GlyphClass: 1
Flags: W
LayerCount: 2
Fore
SplineSet
286 0 m 1
 714 0 l 1
 714 143 l 1
 857 143 l 1
 857 714 l 1
 1000 714 l 1
 1000 1286 l 1
 714 1286 l 1
 714 714 l 1
 571 714 l 1
 571 286 l 1
 429 286 l 1
 429 714 l 1
 286 714 l 1
 286 1286 l 1
 0 1286 l 1
 0 714 l 1
 143 714 l 1
 143 143 l 1
 286 143 l 1
 286 0 l 1
EndSplineSet
EndChar
StartChar: w
Encoding: 119 119 88
Width: 1428
GlyphClass: 1
Flags: W
LayerCount: 2
Fore
SplineSet
143 0 m 1
 571 0 l 1
 571 143 l 1
 714 143 l 1
 714 0 l 1
 1143 0 l 1
 1143 143 l 1
 1286 143 l 1
 1286 1286 l 1
 1000 1286 l 1
 1000 286 l 1
 857 286 l 1
 857 571 l 1
 714 571 l 1
 714 714 l 1
 571 714 l 1
 571 571 l 1
 429 571 l 1
 429 286 l 1
 286 286 l 1
 286 1286 l 1
 0 1286 l 1
 0 143 l 1
 143 143 l 1
 143 0 l 1
EndSplineSet
EndChar
StartChar: x
Encoding: 120 120 89
Width: 1142
GlyphClass: 1
Flags: W
LayerCount: 2
Fore
SplineSet
0 0 m 5
 286 0 l 5
 286 429 l 5
 429 429 l 5
 429 571 l 5
 571 571 l 5
 571 429 l 5
 714 429 l 5
 714 0 l 5
 1000 0 l 5
 1000 429 l 5
 857 429 l 5
 857 714 l 5
 714 714 l 5
 714 857 l 5
 857 857 l 5
 857 1000 l 5
 1000 1000 l 5
 1000 1286 l 5
 714 1286 l 5
 714 1143 l 5
 571 1143 l 5
 571 1000 l 5
 429 1000 l 5
 429 1143 l 5
 286 1143 l 5
 286 1286 l 5
 0 1286 l 5
 0 1000 l 5
 143 1000 l 5
 143 857 l 5
 286 857 l 5
 286 714 l 5
 143 714 l 5
 143 429 l 5
 0 429 l 5
 0 0 l 5
EndSplineSet
EndChar
StartChar: y
Encoding: 121 121 90
Width: 1142
GlyphClass: 1
Flags: W
LayerCount: 2
Fore
SplineSet
0 -571 m 1
 857 -571 l 1
 857 -429 l 1
 1000 -429 l 1
 1000 1286 l 1
 714 1286 l 1
 714 286 l 1
 286 286 l 1
 286 1286 l 1
 0 1286 l 1
 0 143 l 1
 143 143 l 1
 143 0 l 1
 714 0 l 1
 714 -286 l 1
 0 -286 l 1
 0 -571 l 1
EndSplineSet
EndChar
StartChar: z
Encoding: 122 122 91
Width: 1142
GlyphClass: 1
Flags: W
LayerCount: 2
Fore
SplineSet
0 0 m 1
 1000 0 l 1
 1000 286 l 1
 429 286 l 1
 429 429 l 1
 571 429 l 1
 571 571 l 1
 714 571 l 1
 714 714 l 1
 857 714 l 1
 857 857 l 1
 1000 857 l 1
 1000 1286 l 1
 0 1286 l 1
 0 1000 l 1
 571 1000 l 1
 571 857 l 1
 429 857 l 1
 429 714 l 1
 286 714 l 1
 286 571 l 1
 143 571 l 1
 143 429 l 1
 0 429 l 1
 0 0 l 1
EndSplineSet
EndChar
StartChar: braceleft
Encoding: 123 123 92
Width: 857
GlyphClass: 1
Flags: W
LayerCount: 2
Fore
SplineSet
429 0 m 1
 714 0 l 1
 714 286 l 1
 571 286 l 1
 571 429 l 1
 429 429 l 1
 429 857 l 1
 286 857 l 1
 286 1000 l 1
 429 1000 l 1
 429 1429 l 1
 571 1429 l 1
 571 1571 l 1
 714 1571 l 1
 714 1857 l 1
 429 1857 l 1
 429 1714 l 1
 286 1714 l 1
 286 1429 l 1
 143 1429 l 1
 143 1000 l 1
 0 1000 l 1
 0 857 l 1
 143 857 l 1
 143 429 l 1
 286 429 l 1
 286 143 l 1
 429 143 l 1
 429 0 l 1
EndSplineSet
EndChar
StartChar: bar
Encoding: 124 124 93
Width: 428
GlyphClass: 1
Flags: W
LayerCount: 2
Fore
SplineSet
0 -143 m 1
 286 -143 l 1
 286 2000 l 1
 0 2000 l 1
 0 -143 l 1
EndSplineSet
EndChar
StartChar: braceright
Encoding: 125 125 94
Width: 857
GlyphClass: 1
Flags: W
LayerCount: 2
Fore
SplineSet
0 0 m 1
 286 0 l 1
 286 143 l 1
 429 143 l 1
 429 286 l 1
 571 286 l 1
 571 857 l 1
 714 857 l 1
 714 1000 l 1
 571 1000 l 1
 571 1571 l 1
 429 1571 l 1
 429 1714 l 1
 286 1714 l 1
 286 1857 l 1
 0 1857 l 1
 0 1571 l 1
 143 1571 l 1
 143 1429 l 1
 286 1429 l 1
 286 1000 l 1
 429 1000 l 1
 429 857 l 1
 286 857 l 1
 286 429 l 1
 143 429 l 1
 143 286 l 1
 0 286 l 1
 0 0 l 1
EndSplineSet
EndChar
StartChar: asciitilde
Encoding: 126 126 95
Width: 1000
GlyphClass: 1
Flags: W
LayerCount: 2
Fore
SplineSet
0 714 m 1
 143 714 l 1
 143 857 l 1
 714 857 l 1
 714 1000 l 1
 857 1000 l 1
 857 1286 l 1
 714 1286 l 1
 714 1143 l 1
 143 1143 l 1
 143 1000 l 1
 0 1000 l 1
 0 714 l 1
EndSplineSet
EndChar
StartChar: Aacute
Encoding: 193 193 97
Width: 1285
GlyphClass: 1
Flags: W
LayerCount: 2
Fore
SplineSet
999 1143 m 1
 571 1143 l 1
 571 1571 l 1
 999 1571 l 1
 999 1143 l 1
285 0 m 1
 571 0 l 1
 571 857 l 1
 999 857 l 1
 999 0 l 1
 1285 0 l 1
 1285 1714 l 1
 1142 1714 l 1
 1142 1857 l 1
 428 1857 l 1
 428 1714 l 1
 285 1714 l 1
 285 0 l 1
571 2000 m 1
 856 2000 l 1
 856 2143 l 1
 1142 2143 l 1
 1142 2429 l 1
 856 2429 l 1
 856 2286 l 1
 571 2286 l 1
 571 2000 l 1
EndSplineSet
EndChar
StartChar: Acircumflex
Encoding: 194 194 98
Width: 1285
GlyphClass: 1
Flags: W
LayerCount: 2
Fore
SplineSet
999 1143 m 1
 571 1143 l 1
 571 1571 l 1
 999 1571 l 1
 999 1143 l 1
285 0 m 1
 571 0 l 1
 571 857 l 1
 999 857 l 1
 999 0 l 1
 1285 0 l 1
 1285 1714 l 1
 1142 1714 l 1
 1142 1857 l 1
 428 1857 l 1
 428 1714 l 1
 285 1714 l 1
 285 0 l 1
428 2000 m 1
 713 2000 l 1
 713 2143 l 1
 856 2143 l 1
 856 2000 l 1
 1142 2000 l 1
 1142 2143 l 1
 999 2143 l 1
 999 2286 l 1
 856 2286 l 1
 856 2429 l 1
 713 2429 l 1
 713 2286 l 1
 571 2286 l 1
 571 2143 l 1
 428 2143 l 1
 428 2000 l 1
EndSplineSet
EndChar
StartChar: AE
Encoding: 198 198 102
Width: 1857
GlyphClass: 1
Flags: W
LayerCount: 2
Fore
SplineSet
999 1143 m 1
 856 1143 l 1
 856 1571 l 1
 999 1571 l 1
 999 1143 l 1
285 0 m 1
 571 0 l 1
 571 571 l 1
 713 571 l 1
 713 857 l 1
 999 857 l 1
 999 0 l 1
 1856 0 l 1
 1856 286 l 1
 1285 286 l 1
 1285 857 l 1
 1713 857 l 1
 1713 1143 l 1
 1285 1143 l 1
 1285 1571 l 1
 1856 1571 l 1
 1856 1857 l 1
 713 1857 l 1
 713 1714 l 1
 571 1714 l 1
 571 1143 l 1
 428 1143 l 1
 428 571 l 1
 285 571 l 1
 285 0 l 1
EndSplineSet
EndChar
StartChar: Ccedilla
Encoding: 199 199 103
Width: 1285
GlyphClass: 1
Flags: W
LayerCount: 2
Fore
SplineSet
571 -429 m 1
 856 -429 l 1
 856 -286 l 1
 999 -286 l 1
 999 0 l 1
 1142 0 l 1
 1142 143 l 1
 1285 143 l 1
 1285 429 l 1
 999 429 l 1
 999 286 l 1
 571 286 l 1
 571 1571 l 1
 999 1571 l 1
 999 1429 l 1
 1285 1429 l 1
 1285 1714 l 1
 1142 1714 l 1
 1142 1857 l 1
 428 1857 l 1
 428 1714 l 1
 285 1714 l 1
 285 143 l 1
 428 143 l 1
 428 0 l 1
 713 0 l 1
 713 -286 l 1
 571 -286 l 1
 571 -429 l 1
EndSplineSet
EndChar
StartChar: Egrave
Encoding: 200 200 104
Width: 1285
GlyphClass: 1
Flags: W
LayerCount: 2
Fore
SplineSet
285 0 m 1
 1285 0 l 1
 1285 286 l 1
 571 286 l 1
 571 857 l 1
 1142 857 l 1
 1142 1143 l 1
 571 1143 l 1
 571 1571 l 1
 1285 1571 l 1
 1285 1857 l 1
 285 1857 l 1
 285 0 l 1
713 2000 m 1
 999 2000 l 1
 999 2286 l 1
 713 2286 l 1
 713 2429 l 1
 428 2429 l 1
 428 2143 l 1
 713 2143 l 1
 713 2000 l 1
EndSplineSet
EndChar
StartChar: Eacute
Encoding: 201 201 105
Width: 1285
GlyphClass: 1
Flags: W
LayerCount: 2
Fore
SplineSet
285 0 m 1
 1285 0 l 1
 1285 286 l 1
 571 286 l 1
 571 857 l 1
 1142 857 l 1
 1142 1143 l 1
 571 1143 l 1
 571 1571 l 1
 1285 1571 l 1
 1285 1857 l 1
 285 1857 l 1
 285 0 l 1
571 2000 m 1
 856 2000 l 1
 856 2143 l 1
 1142 2143 l 1
 1142 2429 l 1
 856 2429 l 1
 856 2286 l 1
 571 2286 l 1
 571 2000 l 1
EndSplineSet
EndChar
StartChar: Ecircumflex
Encoding: 202 202 106
Width: 1285
GlyphClass: 1
Flags: W
LayerCount: 2
Fore
SplineSet
285 0 m 1
 1285 0 l 1
 1285 286 l 1
 571 286 l 1
 571 857 l 1
 1142 857 l 1
 1142 1143 l 1
 571 1143 l 1
 571 1571 l 1
 1285 1571 l 1
 1285 1857 l 1
 285 1857 l 1
 285 0 l 1
571 2000 m 1
 713 2000 l 1
 713 2143 l 1
 571 2143 l 1
 571 2000 l 1
856 2000 m 1
 999 2000 l 1
 999 2143 l 1
 856 2143 l 1
 856 2000 l 1
713 2143 m 1
 856 2143 l 1
 856 2286 l 1
 713 2286 l 1
 713 2143 l 1
EndSplineSet
EndChar
StartChar: Igrave
Encoding: 204 204 108
Width: 857
GlyphClass: 1
Flags: W
LayerCount: 2
Fore
SplineSet
285 0 m 1
 856 0 l 1
 856 286 l 1
 713 286 l 1
 713 1571 l 1
 856 1571 l 1
 856 1857 l 1
 285 1857 l 1
 285 1571 l 1
 428 1571 l 1
 428 286 l 1
 285 286 l 1
 285 0 l 1
571 2000 m 1
 856 2000 l 1
 856 2286 l 1
 571 2286 l 1
 571 2429 l 1
 285 2429 l 1
 285 2143 l 1
 571 2143 l 1
 571 2000 l 1
EndSplineSet
EndChar
StartChar: Iacute
Encoding: 205 205 109
Width: 857
GlyphClass: 1
Flags: W
LayerCount: 2
Fore
SplineSet
285 0 m 1
 856 0 l 1
 856 286 l 1
 713 286 l 1
 713 1571 l 1
 856 1571 l 1
 856 1857 l 1
 285 1857 l 1
 285 1571 l 1
 428 1571 l 1
 428 286 l 1
 285 286 l 1
 285 0 l 1
285 2000 m 1
 571 2000 l 1
 571 2143 l 1
 856 2143 l 1
 856 2429 l 1
 571 2429 l 1
 571 2286 l 1
 285 2286 l 1
 285 2000 l 1
EndSplineSet
EndChar
StartChar: Idieresis
Encoding: 207 207 111
Width: 857
GlyphClass: 1
Flags: W
LayerCount: 2
Fore
SplineSet
285 0 m 1
 856 0 l 1
 856 286 l 1
 713 286 l 1
 713 1571 l 1
 856 1571 l 1
 856 1857 l 1
 285 1857 l 1
 285 1571 l 1
 428 1571 l 1
 428 286 l 1
 285 286 l 1
 285 0 l 1
285 2000 m 1
 428 2000 l 1
 428 2143 l 1
 285 2143 l 1
 285 2000 l 1
713 2000 m 1
 856 2000 l 1
 856 2143 l 1
 713 2143 l 1
 713 2000 l 1
EndSplineSet
EndChar
StartChar: Eth
Encoding: 208 208 112
Width: 1285
GlyphClass: 1
Flags: W
LayerCount: 2
Fore
SplineSet
857 286 m 1
 429 286 l 1
 429 857 l 1
 571 857 l 1
 571 1143 l 1
 429 1143 l 1
 429 1571 l 1
 857 1571 l 1
 857 286 l 1
143 0 m 1
 1000 0 l 1
 1000 143 l 1
 1143 143 l 1
 1143 1714 l 1
 1000 1714 l 1
 1000 1857 l 1
 143 1857 l 1
 143 1143 l 1
 0 1143 l 1
 0 857 l 1
 143 857 l 1
 143 0 l 1
EndSplineSet
EndChar
StartChar: Ntilde
Encoding: 209 209 113
Width: 1857
GlyphClass: 1
Flags: W
LayerCount: 2
Fore
SplineSet
285 0 m 1
 571 0 l 1
 571 1429 l 1
 713 1429 l 1
 713 1143 l 1
 856 1143 l 1
 856 857 l 1
 999 857 l 1
 999 571 l 1
 1142 571 l 1
 1142 286 l 1
 1285 286 l 1
 1285 143 l 1
 1428 143 l 1
 1428 0 l 1
 1713 0 l 1
 1713 143 l 1
 1856 143 l 1
 1856 1857 l 1
 1571 1857 l 1
 1571 429 l 1
 1428 429 l 1
 1428 714 l 1
 1285 714 l 1
 1285 1000 l 1
 1142 1000 l 1
 1142 1286 l 1
 999 1286 l 1
 999 1571 l 1
 856 1571 l 1
 856 1714 l 1
 713 1714 l 1
 713 1857 l 1
 428 1857 l 1
 428 1714 l 1
 285 1714 l 1
 285 0 l 1
571 2000 m 1
 713 2000 l 1
 713 2143 l 1
 571 2143 l 1
 571 2000 l 1
713 2143 m 1
 1285 2143 l 1
 1285 2286 l 1
 713 2286 l 1
 713 2143 l 1
1285 2286 m 1
 1428 2286 l 1
 1428 2429 l 1
 1285 2429 l 1
 1285 2286 l 1
EndSplineSet
EndChar
StartChar: Oacute
Encoding: 211 211 115
Width: 1285
GlyphClass: 1
Flags: W
LayerCount: 2
Fore
SplineSet
999 286 m 1
 571 286 l 1
 571 1571 l 1
 999 1571 l 1
 999 286 l 1
428 0 m 1
 1142 0 l 1
 1142 143 l 1
 1285 143 l 1
 1285 1714 l 1
 1142 1714 l 1
 1142 1857 l 1
 428 1857 l 1
 428 1714 l 1
 285 1714 l 1
 285 143 l 1
 428 143 l 1
 428 0 l 1
571 2000 m 1
 856 2000 l 1
 856 2143 l 1
 1142 2143 l 1
 1142 2429 l 1
 856 2429 l 1
 856 2286 l 1
 571 2286 l 1
 571 2000 l 1
EndSplineSet
EndChar
StartChar: Oslash
Encoding: 216 216 119
Width: 1285
GlyphClass: 1
Flags: W
LayerCount: 2
Fore
SplineSet
285 0 m 1
 428 0 l 1
 428 143 l 1
 285 143 l 1
 285 0 l 1
713 714 m 1
 856 714 l 1
 856 1143 l 1
 713 1143 l 1
 713 714 l 1
999 286 m 1
 713 286 l 1
 713 714 l 1
 571 714 l 1
 571 1571 l 1
 856 1571 l 1
 856 1143 l 1
 999 1143 l 1
 999 286 l 1
571 0 m 1
 1142 0 l 1
 1142 143 l 1
 1285 143 l 1
 1285 1571 l 1
 1142 1571 l 1
 1142 1714 l 1
 999 1714 l 1
 999 1857 l 1
 428 1857 l 1
 428 1714 l 1
 285 1714 l 1
 285 286 l 1
 428 286 l 1
 428 143 l 1
 571 143 l 1
 571 0 l 1
1142 1714 m 1
 1285 1714 l 1
 1285 1857 l 1
 1142 1857 l 1
 1142 1714 l 1
EndSplineSet
EndChar
StartChar: Ucircumflex
Encoding: 219 219 122
Width: 1285
GlyphClass: 1
Flags: W
LayerCount: 2
Fore
SplineSet
428 0 m 1
 1142 0 l 1
 1142 143 l 1
 1285 143 l 1
 1285 1857 l 1
 999 1857 l 1
 999 286 l 1
 571 286 l 1
 571 1857 l 1
 285 1857 l 1
 285 143 l 1
 428 143 l 1
 428 0 l 1
571 2000 m 1
 713 2000 l 1
 713 2143 l 1
 571 2143 l 1
 571 2000 l 1
856 2000 m 1
 999 2000 l 1
 999 2143 l 1
 856 2143 l 1
 856 2000 l 1
713 2143 m 1
 856 2143 l 1
 856 2286 l 1
 713 2286 l 1
 713 2143 l 1
EndSplineSet
EndChar
StartChar: Yacute
Encoding: 221 221 124
Width: 1428
GlyphClass: 1
Flags: W
LayerCount: 2
Fore
SplineSet
713 0 m 1
 999 0 l 1
 999 857 l 1
 1142 857 l 1
 1142 1000 l 1
 1285 1000 l 1
 1285 1143 l 1
 1428 1143 l 1
 1428 1857 l 1
 1142 1857 l 1
 1142 1286 l 1
 999 1286 l 1
 999 1143 l 1
 713 1143 l 1
 713 1286 l 1
 571 1286 l 1
 571 1857 l 1
 285 1857 l 1
 285 1143 l 1
 428 1143 l 1
 428 1000 l 1
 571 1000 l 1
 571 857 l 1
 713 857 l 1
 713 0 l 1
571 2000 m 1
 856 2000 l 1
 856 2143 l 1
 1142 2143 l 1
 1142 2429 l 1
 856 2429 l 1
 856 2286 l 1
 571 2286 l 1
 571 2000 l 1
EndSplineSet
EndChar
StartChar: Thorn
Encoding: 222 222 125
Width: 1142
GlyphClass: 1
Flags: W
LayerCount: 2
Fore
SplineSet
856 714 m 1
 571 714 l 1
 571 1143 l 1
 856 1143 l 1
 856 714 l 1
285 143 m 1
 571 143 l 1
 571 429 l 1
 999 429 l 1
 999 571 l 1
 1142 571 l 1
 1142 1286 l 1
 999 1286 l 1
 999 1429 l 1
 571 1429 l 1
 571 1714 l 1
 285 1714 l 1
 285 143 l 1
EndSplineSet
EndChar
StartChar: germandbls
Encoding: 223 223 126
Width: 1428
GlyphClass: 1
Flags: W
LayerCount: 2
Fore
SplineSet
285 0 m 1
 571 0 l 1
 571 1571 l 1
 999 1571 l 1
 999 1429 l 1
 856 1429 l 1
 856 1286 l 1
 713 1286 l 1
 713 857 l 1
 856 857 l 1
 856 714 l 1
 999 714 l 1
 999 571 l 1
 1142 571 l 1
 1142 286 l 1
 713 286 l 1
 713 0 l 1
 1285 0 l 1
 1285 143 l 1
 1428 143 l 1
 1428 714 l 1
 1285 714 l 1
 1285 857 l 1
 1142 857 l 1
 1142 1000 l 1
 999 1000 l 1
 999 1143 l 1
 1142 1143 l 1
 1142 1286 l 1
 1285 1286 l 1
 1285 1714 l 1
 1142 1714 l 1
 1142 1857 l 1
 285 1857 l 1
 285 0 l 1
EndSplineSet
EndChar
StartChar: atilde
Encoding: 227 227 130
Width: 1357
GlyphClass: 1
Flags: W
LayerCount: 2
Fore
SplineSet
999 286 m 1
 571 286 l 1
 571 571 l 1
 999 571 l 1
 999 286 l 1
428 0 m 1
 1428 0 l 1
 1428 286 l 1
 1285 286 l 1
 1285 1143 l 1
 1142 1143 l 1
 1142 1286 l 1
 285 1286 l 1
 285 1000 l 1
 999 1000 l 1
 999 857 l 1
 428 857 l 1
 428 714 l 1
 285 714 l 1
 285 143 l 1
 428 143 l 1
 428 0 l 1
428 1429 m 1
 571 1429 l 1
 571 1571 l 1
 428 1571 l 1
 428 1429 l 1
571 1571 m 1
 999 1571 l 1
 999 1714 l 1
 571 1714 l 1
 571 1571 l 1
999 1714 m 1
 1142 1714 l 1
 1142 1857 l 1
 999 1857 l 1
 999 1714 l 1
EndSplineSet
EndChar
StartChar: aring
Encoding: 229 229 132
Width: 1357
GlyphClass: 1
Flags: W
LayerCount: 2
Fore
SplineSet
999 286 m 1
 571 286 l 1
 571 571 l 1
 999 571 l 1
 999 286 l 1
428 0 m 1
 1428 0 l 1
 1428 286 l 1
 1285 286 l 1
 1285 1143 l 1
 1142 1143 l 1
 1142 1286 l 1
 285 1286 l 1
 285 1000 l 1
 999 1000 l 1
 999 857 l 1
 428 857 l 1
 428 714 l 1
 285 714 l 1
 285 143 l 1
 428 143 l 1
 428 0 l 1
713 1429 m 1
 856 1429 l 1
 856 1571 l 1
 713 1571 l 1
 713 1429 l 1
571 1571 m 1
 713 1571 l 1
 713 1714 l 1
 571 1714 l 1
 571 1571 l 1
856 1571 m 1
 999 1571 l 1
 999 1714 l 1
 856 1714 l 1
 856 1571 l 1
713 1714 m 1
 856 1714 l 1
 856 1857 l 1
 713 1857 l 1
 713 1714 l 1
EndSplineSet
EndChar
StartChar: ccedilla
Encoding: 231 231 133
Width: 1285
GlyphClass: 1
Flags: W
LayerCount: 2
Fore
SplineSet
428 0 m 1
 1285 0 l 1
 1285 286 l 1
 571 286 l 1
 571 1000 l 1
 1285 1000 l 1
 1285 1286 l 1
 428 1286 l 1
 428 1143 l 1
 285 1143 l 1
 285 143 l 1
 428 143 l 1
 428 0 l 1
EndSplineSet
EndChar
StartChar: edieresis
Encoding: 235 235 137
Width: 1285
GlyphClass: 1
Flags: W
LayerCount: 2
Fore
SplineSet
999 714 m 1
 571 714 l 1
 571 1000 l 1
 999 1000 l 1
 999 714 l 1
428 0 m 1
 1285 0 l 1
 1285 286 l 1
 571 286 l 1
 571 429 l 1
 1285 429 l 1
 1285 1143 l 1
 1142 1143 l 1
 1142 1286 l 1
 428 1286 l 1
 428 1143 l 1
 285 1143 l 1
 285 143 l 1
 428 143 l 1
 428 0 l 1
EndSplineSet
EndChar
StartChar: iacute
Encoding: 237 237 139
Width: 571
GlyphClass: 1
Flags: W
LayerCount: 2
Fore
SplineSet
285 0 m 1
 571 0 l 1
 571 1286 l 1
 285 1286 l 1
 285 0 l 1
285 1571 m 1
 571 1571 l 1
 571 1857 l 1
 285 1857 l 1
 285 1571 l 1
EndSplineSet
EndChar
StartChar: ydieresis
Encoding: 255 255 153
Width: 1285
GlyphClass: 1
Flags: W
LayerCount: 2
Fore
SplineSet
285 -571 m 1
 1142 -571 l 1
 1142 -429 l 1
 1285 -429 l 1
 1285 1286 l 1
 999 1286 l 1
 999 286 l 1
 571 286 l 1
 571 1286 l 1
 285 1286 l 1
 285 143 l 1
 428 143 l 1
 428 0 l 1
 999 0 l 1
 999 -286 l 1
 285 -286 l 1
 285 -571 l 1
EndSplineSet
EndChar
StartChar: Uring
Encoding: 366 366 154
Width: 1285
GlyphClass: 1
Flags: W
LayerCount: 2
Fore
SplineSet
428 0 m 1
 1142 0 l 1
 1142 143 l 1
 1285 143 l 1
 1285 1857 l 1
 999 1857 l 1
 999 286 l 1
 571 286 l 1
 571 1857 l 1
 285 1857 l 1
 285 143 l 1
 428 143 l 1
 428 0 l 1
EndSplineSet
EndChar
StartChar: uring
Encoding: 367 367 155
Width: 1285
GlyphClass: 1
Flags: W
LayerCount: 2
Fore
SplineSet
428 0 m 1
 1142 0 l 1
 1142 143 l 1
 1285 143 l 1
 1285 1286 l 1
 999 1286 l 1
 999 286 l 1
 571 286 l 1
 571 1286 l 1
 285 1286 l 1
 285 143 l 1
 428 143 l 1
 428 0 l 1
EndSplineSet
EndChar
StartChar: Ydieresis
Encoding: 376 376 156
Width: 1375
GlyphClass: 1
Flags: W
LayerCount: 2
Fore
SplineSet
713 0 m 1
 999 0 l 1
 999 857 l 1
 1142 857 l 1
 1142 1000 l 1
 1285 1000 l 1
 1285 1143 l 1
 1428 1143 l 1
 1428 1857 l 1
 1142 1857 l 1
 1142 1286 l 1
 999 1286 l 1
 999 1143 l 1
 713 1143 l 1
 713 1286 l 1
 571 1286 l 1
 571 1857 l 1
 285 1857 l 1
 285 1143 l 1
 428 1143 l 1
 428 1000 l 1
 571 1000 l 1
 571 857 l 1
 713 857 l 1
 713 0 l 1
571 2000 m 1
 713 2000 l 1
 713 2143 l 1
 571 2143 l 1
 571 2000 l 1
999 2000 m 1
 1142 2000 l 1
 1142 2143 l 1
 999 2143 l 1
 999 2000 l 1
EndSplineSet
EndChar
StartChar: quoteleft
Encoding: 8216 8216 157
Width: 428
GlyphClass: 1
Flags: W
LayerCount: 2
Fore
SplineSet
0 1429 m 1
 143 1429 l 1
 143 1571 l 1
 286 1571 l 1
 286 1857 l 1
 0 1857 l 1
 0 1429 l 1
EndSplineSet
EndChar
StartChar: quoteright
Encoding: 8217 8217 158
Width: 428
GlyphClass: 1
Flags: W
LayerCount: 2
Fore
SplineSet
143 1429 m 1
 286 1429 l 1
 286 1857 l 1
 0 1857 l 1
 0 1571 l 1
 143 1571 l 1
 143 1429 l 1
EndSplineSet
EndChar
StartChar: quotedblleft
Encoding: 8220 8220 159
Width: 857
GlyphClass: 1
Flags: W
LayerCount: 2
Fore
SplineSet
0 1429 m 1
 143 1429 l 1
 143 1571 l 1
 286 1571 l 1
 286 1857 l 1
 0 1857 l 1
 0 1429 l 1
429 1429 m 1
 571 1429 l 1
 571 1571 l 1
 714 1571 l 1
 714 1857 l 1
 429 1857 l 1
 429 1429 l 1
EndSplineSet
EndChar
StartChar: quotedblright
Encoding: 8221 8221 160
Width: 857
GlyphClass: 1
Flags: W
LayerCount: 2
Fore
SplineSet
143 1429 m 1
 286 1429 l 1
 286 1857 l 1
 0 1857 l 1
 0 1571 l 1
 143 1571 l 1
 143 1429 l 1
571 1429 m 1
 714 1429 l 1
 714 1857 l 1
 429 1857 l 1
 429 1571 l 1
 571 1571 l 1
 571 1429 l 1
EndSplineSet
EndChar
StartChar: radical
Encoding: 8730 8730 162
Width: 1435
Flags: W
HStem: 0 21G<715 858> 572 286<143 429> 572 143<0 143> 1573 286<1430 2431>
VStem: 715 143<0 143> 858 286<572 858> 1001 286<1001 1287>
LayerCount: 2
Fore
SplineSet
143 857 m 1
 143 571 l 1025x90
1144 572 m 1025xb4
1144 572 m 1025
429 858 m 1xda
 715 858 l 1xda
 715 715 l 1
 715 572 l 1xba
 858 572 l 1
 858 715 l 1
 858 1001 l 1xb4
 1001 1001 l 1
 1001 1144 l 1
 1001 1430 l 1xb2
 1144 1430 l 1
 1144 1573 l 1
 1144 1716 l 1xb4
 1287 1716 l 1
 1287 1859 l 1
 1573 1859 l 1
 1859 1859 l 1
 2002 1859 l 1
 2145 1859 l 1
 2288 1859 l 1
 2431 1859 l 1
 2574 1859 l 1
 2574 1716 l 1
 2717 1716 l 1
 2717 1430 l 1
 2431 1430 l 1
 2431 1573 l 1
 2288 1573 l 1
 2145 1573 l 1
 2002 1573 l 1
 1859 1573 l 1
 1573 1573 l 1
 1430 1573 l 1
 1430 1430 l 1
 1430 1287 l 1
 1287 1287 l 1
 1287 1144 l 1
 1287 858 l 1xd2
 1144 858 l 1xd4
 1144 715 l 1
 1144 429 l 1xb4
 1001 429 l 1
 1001 143 l 1
 858 143 l 1
 858 0 l 1
 715 0 l 1
 715 143 l 1
 572 143 l 1
 572 286 l 1
 572 429 l 1
 429 429 l 1
 429 572 l 1
 143 572 l 1xda
 0 572 l 1
 0 715 l 1
 143 715 l 1xba
 143 858 l 1
 429 858 l 1xda
EndSplineSet
EndChar
StartChar: uni232B
Encoding: 9003 9003 161
Width: 2988
Flags: HWO
LayerCount: 2
Fore
SplineSet
143 858 m 5
 143 858 l 1
 143 1001 l 1
 286 1001 l 1
 286 1144 l 1
 429 1144 l 1
 429 1287 l 1
 572 1287 l 1
 572 1430 l 1
 715 1430 l 1
 715 1573 l 1
 1001 1573 l 1
 1287 1573 l 1
 1573 1573 l 1
 1859 1573 l 1
 2145 1573 l 1
 2431 1573 l 1
 2431 1430 l 1
 2574 1430 l 1
 2574 1144 l 1
 2574 858 l 1
 2574 715 l 1
 2574 572 l 1
 2574 429 l 1
 2574 143 l 1
 2431 143 l 1
 2431 0 l 1
 2145 0 l 1
 1859 0 l 1
 1573 0 l 1
 1287 0 l 1
 1001 0 l 1
 715 0 l 1
 715 143 l 1
 572 143 l 1
 572 286 l 1
 429 286 l 1
 429 429 l 1
 286 429 l 1
 286 572 l 1
 143 572 l 1
 143 715 l 1
 143 715 l 5
 143 858 l 5
1716 715 m 1
 1859 715 l 1
 1859 572 l 1
 2002 572 l 1
 2002 429 l 1
 2002 286 l 1
 2145 286 l 1
 2145 429 l 1
 2288 429 l 1
 2288 572 l 1
 2288 715 l 1
 2288 858 l 1
 2288 1144 l 1
 2145 1144 l 1
 2145 1287 l 1
 2002 1287 l 1
 2002 1144 l 1
 2002 1001 l 1
 1859 1001 l 1
 1859 858 l 1
 1716 858 l 1
 1716 715 l 1
1573 572 m 1
 1430 572 l 1
 1430 429 l 1
 1287 429 l 1
 1287 286 l 1
 1573 286 l 1
 1716 286 l 1
 1716 429 l 1
 1573 429 l 1
 1573 572 l 1
1430 1001 m 1
 1573 1001 l 1
 1573 1057 l 0
 1573 1144 l 1
 1716 1144 l 1
 1716 1287 l 1
 1573 1287 l 1
 1287 1287 l 1
 1287 1144 l 1
 1430 1144 l 1
 1430 1001 l 1
1287 858 m 1
 1144 858 l 1
 1144 1001 l 1
 1001 1001 l 1
 1001 1144 l 1
 1001 1287 l 1
 858 1287 l 1
 858 1144 l 1
 715 1144 l 1
 715 1001 l 1
 572 1001 l 1
 572 858 l 1
 571 858 l 1
 572 715 l 1
 572 715 l 1
 572 572 l 1
 715 572 l 1
 715 429 l 1
 858 429 l 1
 858 286 l 1
 1001 286 l 1
 1001 429 l 1
 1001 572 l 1
 1144 572 l 1
 1144 715 l 1
 1287 715 l 1
 1287 858 l 1
EndSplineSet
EndChar
StartChar: .notdef
Encoding: 65536 -1 0
Width: 1695
GlyphClass: 1
Flags: W
LayerCount: 2
Fore
SplineSet
1483 50 m 1
 69 50 l 1
 776 990 l 1
 1483 50 l 1
50 69 m 1
 50 1949 l 1
 757 1009 l 1
 50 69 l 1
1502 69 m 1
 795 1009 l 1
 1502 1949 l 1
 1502 69 l 1
776 1028 m 1
 69 1968 l 1
 1483 1968 l 1
 776 1028 l 1
0 0 m 1
 1552 0 l 1
 1552 2018 l 1
 0 2018 l 1
 0 0 l 1
EndSplineSet
EndChar
